<svg xmlns="http://www.w3.org/2000/svg" width="48" height="48" viewBox="0 0 48 48" fill="none">
  <!-- Flask body -->
  <path d="M18 4h12v14l10 18a4 4 0 0 1-3.5 6h-25A4 4 0 0 1 8 36l10-18V4z" fill="#7c3aed" opacity="0.9"/>
  <!-- Flask neck highlight -->
  <rect x="18" y="2" width="12" height="4" rx="1" fill="#7c3aed"/>
  <!-- Flask rim -->
  <rect x="16" y="1" width="16" height="3" rx="1.5" fill="#6d28d9"/>
  <!-- Liquid in flask -->
  <path d="M12.5 34l7.5-8h8l7.5 8a4 4 0 0 1-3.5 6h-16a4 4 0 0 1-3.5-6z" fill="#a78bfa" opacity="0.5"/>
  <!-- Bubbles -->
  <circle cx="22" cy="33" r="1.5" fill="#c4b5fd" opacity="0.8"/>
  <circle cx="27" cy="30" r="1" fill="#c4b5fd" opacity="0.6"/>
  <circle cx="24" cy="36" r="1" fill="#c4b5fd" opacity="0.7"/>
  <!-- Checkmark badge -->
  <circle cx="36" cy="12" r="8" fill="#10b981"/>
  <path d="M32 12l2.5 2.5L39 9.5" stroke="white" stroke-width="2.5" stroke-linecap="round" stroke-linejoin="round" fill="none"/>
  <!-- Sparkle -->
  <path d="M8 10l1-3 1 3 3 1-3 1-1 3-1-3-3-1z" fill="#fbbf24" opacity="0.8"/>
</svg>